<svg id="Capa_1" data-name="Capa 1" xmlns="http://www.w3.org/2000/svg" xmlns:xlink="http://www.w3.org/1999/xlink" viewBox="0 0 200.01 210.6"><defs><style>.cls-1{fill:#90e1f4;}.cls-2{fill:#080806;}.cls-12,.cls-3{fill:#f0c7b1;}.cls-4{fill:#ffe4d6;}.cls-5{fill:#e1ac8f;}.cls-6{fill:none;}.cls-12,.cls-6{stroke:#c27b55;stroke-width:1.5px;}.cls-7{fill:url(#Degradado_sin_nombre);}.cls-8{fill:#e72222;}.cls-9{fill:#d80a0a;}.cls-10{fill:#f63d3d;}.cls-11{fill:#b90000;}.cls-13{fill:#c27b55;}.cls-14{fill:#e8b9a0;}.cls-15{fill:url(#Degradado_sin_nombre_2);}.cls-16{fill:url(#Degradado_sin_nombre_3);}.cls-17{fill:#b5d867;}.cls-18,.cls-27{opacity:0.7;}.cls-18,.cls-19,.cls-20,.cls-21,.cls-22,.cls-23,.cls-27,.cls-28,.cls-29,.cls-30,.cls-31,.cls-37,.cls-39,.cls-40{isolation:isolate;}.cls-18{fill:url(#Degradado_sin_nombre_4);}.cls-19,.cls-28,.cls-40{opacity:0.4;}.cls-19{fill:url(#Degradado_sin_nombre_5);}.cls-20{opacity:0.9;}.cls-21,.cls-22,.cls-29,.cls-30{opacity:0.5;}.cls-21{fill:url(#Degradado_sin_nombre_6);}.cls-22{fill:url(#Degradado_sin_nombre_7);}.cls-23,.cls-31{opacity:0.75;}.cls-23{fill:url(#Degradado_sin_nombre_8);}.cls-24{fill:url(#Degradado_sin_nombre_9);}.cls-25{fill:url(#Degradado_sin_nombre_10);}.cls-26{fill:url(#Degradado_sin_nombre_11);}.cls-27{fill:url(#Degradado_sin_nombre_12);}.cls-28{fill:url(#Degradado_sin_nombre_13);}.cls-29{fill:url(#Degradado_sin_nombre_14);}.cls-30{fill:url(#Degradado_sin_nombre_15);}.cls-31{fill:url(#Degradado_sin_nombre_16);}.cls-32{fill:url(#Degradado_sin_nombre_17);}.cls-33{fill:url(#Degradado_sin_nombre_18);}.cls-34{fill:url(#Degradado_sin_nombre_19);}.cls-35{fill:url(#Degradado_sin_nombre_20);}.cls-36{fill:#2a232b;}.cls-37{fill:#fff5ef;}.cls-37,.cls-39{opacity:0.2;}.cls-38{fill:#171714;}.cls-39,.cls-40{fill:#fff;}.cls-41{fill:#130b3c;}.cls-42{fill:#1e154b;}</style><linearGradient id="Degradado_sin_nombre" x1="-389.38" y1="322.13" x2="-389.38" y2="333.87" gradientTransform="matrix(3, 0, 0, -3, 1268, 1124)" gradientUnits="userSpaceOnUse"><stop offset="0" stop-color="#e1ac8f" stop-opacity="0.8"/><stop offset="0.7" stop-color="#c27b55"/></linearGradient><linearGradient id="Degradado_sin_nombre_2" x1="-389.82" y1="329.4" x2="-389.82" y2="330.2" gradientTransform="matrix(3, 0, 0, -3, 1269.5, 1121)" gradientUnits="userSpaceOnUse"><stop offset="0.1" stop-color="#e8b9a0"/><stop offset="1" stop-color="#e1ac8f"/></linearGradient><radialGradient id="Degradado_sin_nombre_3" cx="-654.94" cy="335.26" r="3.53" gradientTransform="matrix(-3.3, 0.13, -0.19, -2.76, -2017.97, 1096.56)" gradientUnits="userSpaceOnUse"><stop offset="0" stop-color="#fff"/><stop offset="0.54" stop-color="#fdfefe"/><stop offset="0.74" stop-color="#f6f8f9"/><stop offset="0.88" stop-color="#eaeff2"/><stop offset="0.99" stop-color="#d9e3e8"/><stop offset="1" stop-color="#d8e2e7"/></radialGradient><radialGradient id="Degradado_sin_nombre_4" cx="317.64" cy="263.11" r="15.93" gradientTransform="matrix(0.29, -0.07, -0.07, -0.29, 7.07, 186.7)" gradientUnits="userSpaceOnUse"><stop offset="0" stop-color="#fff"/><stop offset="1" stop-color="#fff" stop-opacity="0"/></radialGradient><radialGradient id="Degradado_sin_nombre_5" cx="436.99" cy="678.21" r="15.93" gradientTransform="matrix(0.3, 0, 0, -0.3, -52.94, 287.7)" xlink:href="#Degradado_sin_nombre_4"/><linearGradient id="Degradado_sin_nombre_6" x1="-345.38" y1="344.46" x2="-345.13" y2="344.76" gradientTransform="matrix(3, 0, 0, -3, 1112.75, 1124)" xlink:href="#Degradado_sin_nombre_4"/><linearGradient id="Degradado_sin_nombre_7" x1="-344.17" y1="346.05" x2="-344.37" y2="345.82" gradientTransform="matrix(3, 0, 0, -3, 1112.75, 1124)" xlink:href="#Degradado_sin_nombre_4"/><linearGradient id="Degradado_sin_nombre_8" x1="-343.52" y1="346.71" x2="-343.98" y2="346.16" gradientTransform="matrix(3, 0, 0, -3, 1112.75, 1124)" xlink:href="#Degradado_sin_nombre_4"/><radialGradient id="Degradado_sin_nombre_9" cx="-345.21" cy="393.23" r="4.54" gradientTransform="matrix(2.97, 0.41, -0.4, 2.21, 1262.5, -640.15)" gradientUnits="userSpaceOnUse"><stop offset="0" stop-color="#e1ac8f"/><stop offset="0.7" stop-color="#e1ac8f" stop-opacity="0.3"/><stop offset="1" stop-color="#f0c7b1" stop-opacity="0"/></radialGradient><radialGradient id="Degradado_sin_nombre_10" cx="-331.9" cy="319.32" r="7" gradientTransform="matrix(2.15, -0.18, -0.24, -1.84, 869.64, 624.24)" gradientUnits="userSpaceOnUse"><stop offset="0.95" stop-opacity="0"/><stop offset="1" stop-opacity="0.2"/></radialGradient><radialGradient id="Degradado_sin_nombre_11" cx="-392.69" cy="347.31" r="3.53" gradientTransform="matrix(3.3, 0.13, 0.19, -2.76, 1349.97, 1096.56)" xlink:href="#Degradado_sin_nombre_3"/><radialGradient id="Degradado_sin_nombre_12" cx="-51.45" cy="358.36" r="15.93" gradientTransform="matrix(0.29, -0.07, -0.07, -0.29, 161.57, 186.7)" xlink:href="#Degradado_sin_nombre_4"/><radialGradient id="Degradado_sin_nombre_13" cx="55.94" cy="674.81" r="15.94" gradientTransform="matrix(0.3, 0, 0, -0.3, 101.55, 287.7)" xlink:href="#Degradado_sin_nombre_4"/><linearGradient id="Degradado_sin_nombre_14" x1="-383.15" y1="344.46" x2="-382.9" y2="344.76" gradientTransform="matrix(3, 0, 0, -3, 1267.25, 1124)" xlink:href="#Degradado_sin_nombre_4"/><linearGradient id="Degradado_sin_nombre_15" x1="-381.94" y1="346.05" x2="-382.14" y2="345.82" gradientTransform="matrix(3, 0, 0, -3, 1267.25, 1124)" xlink:href="#Degradado_sin_nombre_4"/><linearGradient id="Degradado_sin_nombre_16" x1="-381.29" y1="346.71" x2="-381.75" y2="346.16" gradientTransform="matrix(3, 0, 0, -3, 1267.25, 1124)" xlink:href="#Degradado_sin_nombre_4"/><radialGradient id="Degradado_sin_nombre_17" cx="-631.37" cy="446.37" r="4.54" gradientTransform="matrix(-2.97, 0.41, 0.4, 2.21, -1932.89, -640.03)" xlink:href="#Degradado_sin_nombre_9"/><radialGradient id="Degradado_sin_nombre_18" cx="-730.09" cy="358.23" r="7" gradientTransform="matrix(-2.15, -0.18, 0.24, -1.84, -1537.64, 624.26)" xlink:href="#Degradado_sin_nombre_10"/><radialGradient id="Degradado_sin_nombre_19" cx="-389.38" cy="337.6" r="10.93" gradientTransform="matrix(3, 0, 0, -3, 1268, 1124)" gradientUnits="userSpaceOnUse"><stop offset="0" stop-color="#ffe4d6" stop-opacity="0.5"/><stop offset="0.9" stop-color="#f0c7b1" stop-opacity="0"/></radialGradient><radialGradient id="Degradado_sin_nombre_20" cx="-389.38" cy="353.6" r="9.87" xlink:href="#Degradado_sin_nombre_19"/></defs><title>amaya</title><g id="svga-group-backs-single"><path id="SvgjsPath3600" class="cls-1" d="M199.87,200H-.13V0h200Z" transform="translate(0.13)"/></g><g id="svga-group-hair-back"><path id="SvgjsPath4355" class="cls-2" d="M100.27,100.4h-.8v-.8h.8Z" transform="translate(0.13)"/></g><g id="svga-group-humanbody-single"><path id="SvgjsPath2893" class="cls-3" d="M176.21,179.83c-1.76-3.8-6.56-9.43-11.89-11-6.59-1.92-21.47-4.25-27-5.54-4.42-1-13.33-9-16.45-11.72a3.37,3.37,0,0,1-1-2.21c-.11-8.69,3.36-31.78,3.36-31.78H76.54s3.46,23.09,3.35,31.78a3.37,3.37,0,0,1-1,2.21c-3.12,2.69-12,10.68-16.45,11.72-5.52,1.29-20.39,3.7-27,5.62-5.33,1.55-10.13,7.1-11.88,10.9-3,6.4-3.67,18-3.67,28h160C179.87,197.83,179.17,186.23,176.21,179.83Z" transform="translate(0.13)"/><path id="SvgjsPath2894" class="cls-4" d="M147.2,167.25c19.47,2.83,27.67,7,30.23,40.58h2.44c0-10-.7-21.6-3.66-28-1.76-3.8-6.56-9.43-11.89-11-6.59-1.92-21.47-4.25-27-5.54-4.42-1-14.59-9.65-17.31-13.08,2.68,3.76,10.23,12.49,16.84,14.77A52,52,0,0,0,147.2,167.25ZM62.88,165c6.61-2.28,14.16-11,16.85-14.77-2.72,3.43-12.89,12-17.32,13.08-5.52,1.29-20.39,3.7-27,5.62-5.33,1.55-10.13,7.1-11.88,10.9-3,6.4-3.67,18-3.67,28h2.44c2.55-33.4,10.78-37.75,30.24-40.58A51.91,51.91,0,0,0,62.88,165Z" transform="translate(0.13)"/><path id="SvgjsPath2895" class="cls-5" d="M96.39,178.1s-4.06-1.29-5.67-1.9c-8.36-3.21-35.52-5.29-35.52-5.29s28.61,1.14,34.92,2.23c-.37-3.82-2.41-16-2.41-16s4.12,13.45,5.12,16.85C93.37,175.79,96.39,178.1,96.39,178.1ZM105,177c-.07.06-.16.13-.24.21Zm-8.64,1.07s2.31,2.39,3.48,2.42c1.52,0,3.86-2.31,4.92-3.28a9.63,9.63,0,0,1-4.25,1.15C99.47,178.43,96.39,178.1,96.39,178.1Zm16.81-6c-1.23.19-3.51.63-3.51.63l1.83-11.92c-.51,2.46-3.58,13-6.49,16.23,1.53-1.3,4.92-1.92,6.66-2.17,8.19-1.18,8.18-1.18,32.85-4C144.54,170.91,121.28,170.79,113.2,172.09Z" transform="translate(0.13)"/><path id="SvgjsPath2896" class="cls-6" d="M176.21,179.83c-1.76-3.8-6.56-9.43-11.89-11-6.59-1.92-21.47-4.25-27-5.54-4.42-1-13.33-9-16.45-11.72a3.37,3.37,0,0,1-1-2.21c-.11-8.69,3.36-31.78,3.36-31.78H76.54s3.46,23.09,3.35,31.78a3.37,3.37,0,0,1-1,2.21c-3.12,2.69-12,10.68-16.45,11.72-5.52,1.29-20.39,3.7-27,5.62-5.33,1.55-10.13,7.1-11.88,10.9-3,6.4-3.67,18-3.67,28h160C179.87,197.83,179.17,186.23,176.21,179.83Z" transform="translate(0.13)"/></g><g id="svga-group-chinshadow-single"><path id="SvgjsPath4373" class="cls-7" d="M79.75,151.48a36.66,36.66,0,0,0,40.24,0,4,4,0,0,1-.74-2.1c-.07-5.69,1.35-17.29,2.36-24.83-12.47-2.51-31-2.51-43.48,0,1,7.54,2.44,19.14,2.36,24.83A4,4,0,0,1,79.75,151.48Z" transform="translate(0.13)"/></g><g id="svga-group-clothes-single"><path id="SvgjsPath4361" class="cls-8" d="M16.92,209c-2.33-19.44,6.42-37.67,27.6-43.69,6.22-1.77,4.55-2.67,5.49-2.73a2,2,0,0,1,0-.5h0c.07-6.43,7.22-5.17,9.27-5.59,8.1-1.73,10.85-10.23,20.09-8,.23,1.95.06,4.2-1.09,12.53,8.71,18.78,18.17,17.15,21.54,27.66,3-9.4,13.87-10.89,21.84-27.66-.52-4.71-1.66-8.83-1.18-12.75l0,0c6.2-2.07,8.9.7,11.37,3.08,7.52,7.27,11.51,2.66,15.27,6a6.63,6.63,0,0,1,2,5.21c17.13,2.49,36.78,7.92,32.87,46l.07.08C164.75,208.54,65.91,212.88,16.92,209Z" transform="translate(0.13)"/><path id="SvgjsPath4362" class="cls-9" d="M100.09,187.75c3.38-8.51,13.55-10.5,21.23-26.2a7.19,7.19,0,0,0,.53-1,15.23,15.23,0,0,0-1-4.61,28.18,28.18,0,0,1-.47-7.63,8.68,8.68,0,0,1,4.09,2.13c1.51,1.64.37,4.49-1.08,7.24C120.72,169.48,114,178,100.09,187.75Zm55.21-8.66c2.35,8.3,3.91,21.55,2,30,1.57,0,2.15-.08,3.61-.11C161.59,200.1,160,186,155.3,179.09ZM130,180.59c-10.25,6-20.55,8.29-29.86,16.24-9.31-7.93-19.72-9.31-30-15.29-4.69-1.89-11.9-8.56-16.3-13.26,13.85,21,23.77,15.06,46,29.23,22.19-14.17,32.17-9.35,46-30.38C141.39,171.83,134.65,178.72,130,180.59Zm-30.24,8.16c-3.39-8.51-13.17-11.5-20.85-27.2a9.28,9.28,0,0,1-.52-1c.13-1.46-.21-3.07.47-4.69a26,26,0,0,0,.32-7.3,6.26,6.26,0,0,0-3.45,1.88c-1.5,1.64-.36,4.49,1.08,7.24C79.47,169.48,85.85,179,99.72,188.75ZM41.6,178.16c-3.44,7.51-3.47,21.94-2.82,30.78,1.45,0,2,.07,3.6.11C40.5,200.64,41,186.61,41.6,178.16Zm58.18,12.22c13.11-3.93,27.05-11.12,38.65-28.68-10.47,14.11-26,22.45-38.35,27.56-12.71-4.61-27.93-13.77-36.8-26.11C73.68,180.19,86.68,186.45,99.78,190.38Z" transform="translate(0.13)"/><path id="SvgjsPath4363" class="cls-10" d="M182.08,208.54h-.3c-.34-38.89-22-40.46-34-43-1.88,0-2.85-5.21-4.23-6.59-1.18-1.18-10.22-1.18-13.08-8.94.47.41.9.84,1.34,1.26,7.52,7.27,11.5,2.66,15.27,6a6.66,6.66,0,0,1,2,5.21c17.13,2.49,36.78,7.92,32.87,46Zm-165.39.94H17c3.8-30.91,12.82-40.65,34.83-44.29,2.76-1.05,1.31-3.05,2.69-4.44,1.17-1.17,7.7-1.2,16.74-10.71-.47.41-2.46.83-2.89,1.25-7.52,7.27-13.19,5.21-15.27,6-2.57,1-3,3.22-3,5.23C33,165,14.8,174.47,16.77,209.39Z" transform="translate(0.13)"/><path id="SvgjsPath4364" class="cls-11" d="M149.22,162.39c0-7.89-7.41-6.32-10.82-7-7.53-1.62-7.29-10.34-18.06-7.19-.46,3.72.41,7,1.17,12.8-7.9,16.6-18.86,18.47-21.75,27.39-3.17-9.9-12.84-8.9-21.45-27.33,1.2-8.67,1.32-10.69,1.09-12.62-8.22-1.88-10.08,3.45-17.51,7-4.51,2.11-5.78.21-9.65,2.1-1.61.78-2.41,2.89-2.36,4.62,0,0,0,0,0,0a1.56,1.56,0,0,0,0,.31c-.94.07.44.06-5.86,1.08-20.29,3.28-29.29,20.43-27.2,45.53,9.51,0,.81,3.5,146.52-.07,6.77-.17,18.24-.35,18.72-.35C186.53,171.42,167.74,165.26,149.22,162.39ZM17,208.85c2.06-28.8,6.41-40,32.84-45.86,14.38,23.87,32,20.4,49.78,33.75-16.13-13.42-33-11.64-49.29-34.07a4.65,4.65,0,0,1,2.82-4.77,12.08,12.08,0,0,1,4.48-.39c5.67.05,10-4.4,14.24-7.66,2-1.33,5-1.4,7.36-1,.18,3.1-1,7.77-1.41,11.07-.83-1.83-1.62-3.73-2.41-5.61,10,29.3,19.92,22.66,24.37,34.82a85.35,85.35,0,0,1-29.46-18.55c-2.69-2.66-8-8.53-8.41-9.08,15.65,21.21,25.66,22.29,37.91,27.76,0,0,0,0,0,0s0,.17.06.2a.68.68,0,0,1,.2-.07.07.07,0,0,1,.06,0c1.7-.83,12.85-4.72,21.35-10.56,8.74-6,18.71-19.06,18-18.11-14.61,14.86-16.86,18.23-39.37,28.54l-.06,0a1.58,1.58,0,0,0-.09-.31.58.58,0,0,1,0-.14c4-10.87,15.58-6.67,25.21-36.45-1,2.58-2,5.11-3.19,7.59-.36-4.36-1.63-7.8-1.49-11.4,1.67-.55,6.2-.81,7.45.44,5.22,4.47,5.65,7.74,14.16,7.74,2.72,0,6.29.36,6.7,5.37A106.59,106.59,0,0,1,141,170.7c-12.35,12.3-23.4,12.53-40.49,25.61.41,0,1.28-.91,1.62-1.14,13.37-9.49,23-9.34,35.27-19.39a73,73,0,0,0,11.7-13h.07c22.56,3.88,33.85,12.37,32.61,45.65C80.71,207.83,67,210.52,17,208.85Z" transform="translate(0.13)"/></g><g id="svga-group-ears-left"><path id="SvgjsPath3601" class="cls-12" d="M56.41,87.48c-1.19-2-5.06-7.36-8-6.61-2.41.62-2.38,4-2.56,6-.27,2.91-.37,8,.42,10a27.88,27.88,0,0,0,4.66,7.26c1.84,1.79,4.78,7.49,5.14,8.08a4,4,0,0,0,3.46,2.17c2.45-.15,4.58-2.47,4.77-3.59C65.31,104.74,59.5,92.6,56.41,87.48Z" transform="translate(0.13)"/><path id="SvgjsPath3602" class="cls-13" d="M55.23,99.48a6.26,6.26,0,0,1,.12-2,6.75,6.75,0,0,0,.15-1.74,28.68,28.68,0,0,0-2.38-6.57c-1-2-2.56-4.48-4.55-5.12a1.53,1.53,0,0,0-1.67.37c-.23.24-.28.52-.2.55s.24-.2.49-.41-.41,0,0,0a34.58,34.58,0,0,0-.33,8.11,17.6,17.6,0,0,0,1,4.49,7.37,7.37,0,0,0,.13.84c.8,3.53,6,8.14,7.23,9.46.22.24.46.38.51.32s-.08-.3-.3-.54c-1.2-1.31-6.38-5.9-7.15-9.31-.82-3.61,3.13-9,3.76-10.1.32.54.59,1.05.8,1.47s.35.73.54,1.15c-.37.59-4.1,4.9-3.15,8.35.35,1.28,3.06,2.92,4.11,3.36a2.12,2.12,0,0,1,1,1.05c.29.5,0,1.78,1,2.19a1.43,1.43,0,0,0,.53.12,1,1,0,0,0,.63-.23c0,.22,0,.5,0,.75s0,.49.12.5.17-.14.18-.47a5,5,0,0,0-.06-1.16,8.29,8.29,0,0,0-1.57-2.36C55.52,101.76,55.41,100.17,55.23,99.48Zm-7.38-3.13C46,90.81,48.87,85.76,49.29,85a8.08,8.08,0,0,1,2.58,2.59C51.49,88.26,47.92,92.62,47.85,96.35Zm8.64,8.82c-.87-.37-.57-1.58-.85-2.06a2.35,2.35,0,0,0-1.18-1.17,3.44,3.44,0,0,1-.47-.27c-2.14-4.86.24-7,.83-7.42a11.23,11.23,0,0,1,.39,1.58,7.09,7.09,0,0,1-.15,1.66,6,6,0,0,0-.12,2.06c.2.76.33,2.38,1,3.24a8.82,8.82,0,0,1,1.48,2.2A.74.74,0,0,1,56.49,105.17Z" transform="translate(0.13)"/></g><g id="svga-group-ears-right"><path id="SvgjsPath3603" class="cls-12" d="M143.13,87.48c1.18-2,5.06-7.36,8-6.61,2.41.62,2.38,4,2.57,6,.27,2.91.37,8-.42,10a27.66,27.66,0,0,1-4.67,7.26c-1.84,1.79-4.77,7.49-5.13,8.08A4,4,0,0,1,140,114.4c-2.45-.15-4.57-2.47-4.77-3.59C134.22,104.74,140,92.6,143.13,87.48Z" transform="translate(0.13)"/><path id="SvgjsPath3604" class="cls-13" d="M143.33,102.6a8.29,8.29,0,0,0-1.57,2.36,5.07,5.07,0,0,0-.06,1.16c0,.33.1.47.18.47s.13-.16.12-.5a6.17,6.17,0,0,1,0-.75,1,1,0,0,0,.62.23,1.39,1.39,0,0,0,.53-.12c1-.41.69-1.69,1-2.19a2.08,2.08,0,0,1,1.05-1c1.05-.45,3.75-2.09,4.1-3.37,1-3.45-2.77-7.76-3.14-8.35.18-.42.37-.81.53-1.15s.48-.93.81-1.47c.63,1.14,4.58,6.49,3.75,10.1-.77,3.41-6,8-7.15,9.31-.22.24-.36.48-.3.54s.29-.08.52-.32c1.21-1.32,6.42-5.93,7.22-9.46a5.74,5.74,0,0,0,.13-.83,17.74,17.74,0,0,0,1-4.5,33.49,33.49,0,0,0-.33-8.11c.41,0-.2-.18,0,0s.42.45.5.41,0-.31-.21-.55A1.52,1.52,0,0,0,151,84.1c-2,.64-3.57,3.14-4.55,5.12A29.83,29.83,0,0,0,144,95.79a6.72,6.72,0,0,0,.15,1.74,5.7,5.7,0,0,1,.12,2A8.09,8.09,0,0,1,143.33,102.6Zm4.33-15A8.08,8.08,0,0,1,150.24,85c.42.76,3.33,5.81,1.45,11.35C151.61,92.62,148.05,88.26,147.66,87.59ZM142.07,105a8.46,8.46,0,0,1,1.49-2.2c.7-.86.84-2.48,1-3.24a5.85,5.85,0,0,0-.12-2.07,6.89,6.89,0,0,1-.14-1.65,11,11,0,0,1,.38-1.58c.6.44,3,2.56.83,7.42a3.3,3.3,0,0,1-.47.27,2.35,2.35,0,0,0-1.18,1.17c-.28.48,0,1.69-.84,2.06A.75.75,0,0,1,142.07,105Z" transform="translate(0.13)"/></g><g id="svga-group-faceshape-wrap"><g id="svga-group-faceshape-single"><path id="SvgjsPath4370" class="cls-3" d="M99.87,20.69c-26.89,0-48.65,22-48.69,49.2a49.65,49.65,0,0,0,1.56,12.52h0S59.82,111,65,125.67c4.47,12.53,18.42,23.83,34.83,23.83s30.37-11.3,34.83-23.83C139.93,111,147,82.45,147,82.41h0a50.11,50.11,0,0,0,1.56-12.52C148.53,42.68,126.77,20.65,99.87,20.69Z" transform="translate(0.13)"/><path id="SvgjsPath4371" class="cls-14" d="M137.29,38.39c6,8.26,8.7,18.55,8.72,29.72a76.56,76.56,0,0,1-1.51,12.51s-6.82,28.6-11.86,43.26c-4.3,12.53-16.95,23.83-32.77,23.83S71.4,136.41,67.1,123.88c-5-14.66-11.84-43.22-11.85-43.26s-1.52-8.13-1.51-12.51c0-11.17,2.76-21.46,8.72-29.71a50,50,0,0,0-9.72,44h0S59.82,111,65,125.67c4.47,12.53,18.42,23.83,34.83,23.83s30.37-11.3,34.84-23.83C139.93,111,147,82.45,147,82.41h0a50,50,0,0,0-9.72-44Z" transform="translate(0.13)"/><path id="SvgjsPath4372" class="cls-6" d="M99.87,20.69c-26.89,0-48.65,22-48.69,49.2a49.65,49.65,0,0,0,1.56,12.52h0S59.82,111,65,125.67c4.47,12.53,18.42,23.83,34.83,23.83s30.37-11.3,34.83-23.83C139.93,111,147,82.45,147,82.41h0a50.11,50.11,0,0,0,1.56-12.52C148.53,42.68,126.77,20.65,99.87,20.69Z" transform="translate(0.13)"/></g></g><g id="svga-group-mouth-single"><path id="SvgjsPath4365" class="cls-15" d="M100.13,132.86a4.55,4.55,0,0,1-3.8-2.24,24.84,24.84,0,0,0,7.42-.05S102.41,132.86,100.13,132.86Z" transform="translate(0.13)"/><path id="SvgjsPath4369" class="cls-13" d="M96.44,130.68a.22.22,0,0,1-.17-.23.21.21,0,0,1,.23-.16,13.28,13.28,0,0,0,7,0,.2.2,0,0,1,.23.16.22.22,0,0,1-.15.24A12.14,12.14,0,0,1,96.44,130.68Zm-7.81-4.31a2.16,2.16,0,0,1,.86-.09c1.13-.2,2.5-.26,3.63-.49a14,14,0,0,1,3.33-.48c1.19.06,2.3.54,3.48.66a9.17,9.17,0,0,0,3.24-.44,8.48,8.48,0,0,1,3.65,0c1.55.29,3,.69,4.55.83.47,0,.29.33,0,.37a19.47,19.47,0,0,1-4.16-.2,9.82,9.82,0,0,0-3.42,0,18,18,0,0,1-3.68.64,15.87,15.87,0,0,1-3-.64,11.63,11.63,0,0,0-3.72.11,17.09,17.09,0,0,1-4.46,0C88.52,126.64,88.52,126.42,88.63,126.37Z" transform="translate(0.13)"/></g><g id="svga-group-eyes-left"><g id="svga-group-eyesback-left"><path id="SvgjsPath4241" class="cls-16" d="M81.26,82.71c3.67.54,6.34,2.79,8.62,6.35h0a.14.14,0,0,1,0,.06c.2.81-.65,1.46-1.72,2-3.82.49-7.49,1.19-11.36.7-7.74-1-7.88-4.41-8.26-5.31a6.5,6.5,0,0,1-.25-2A13,13,0,0,1,73,82.89,29.69,29.69,0,0,1,81.26,82.71Z" transform="translate(0.13)"/></g><g id="svga-group-eyesiriswrapper-left"><g id="svga-group-eyesiriscontrol-left"><g id="svga-group-eyesiris-left"><path id="SvgjsPath4309" class="cls-17" d="M84.07,87.2a4.8,4.8,0,0,1-9.6,0h0a4.8,4.8,0,0,1,9.6,0Z" transform="translate(0.13)"/><path id="SvgjsPath4310" class="cls-18" d="M78.73,82.46h0l.06.33C78.74,82.68,78.74,82.57,78.73,82.46Zm0,.33a11.77,11.77,0,0,0,.42,3.49A11.61,11.61,0,0,0,78.74,82.79Zm.42,3.49c0,.13-.09.22-.17.25a.32.32,0,0,1-.29-.08.33.33,0,0,1,0,.3c-.06.07-.16.08-.3.07a.34.34,0,0,1,.12.28c0,.08-.11.14-.24.19.13,0,.22.11.24.2a.34.34,0,0,1-.12.28.31.31,0,0,1,.3.07.33.33,0,0,1,0,.3.34.34,0,0,1,.3-.08c.08,0,.13.12.16.25.07-.12.14-.19.22-.2a.32.32,0,0,1,.27.15.34.34,0,0,1,.1-.29.32.32,0,0,1,.3,0,.26.26,0,0,1,.23-.44.33.33,0,0,1-.18-.24c0-.09.07-.17.19-.25-.14,0-.24,0-.28-.13a.32.32,0,0,1,0-.3.26.26,0,0,1-.41-.28c-.09.1-.17.16-.26.15S79.22,86.4,79.16,86.28Zm.48.06a11.57,11.57,0,0,0,1.26-3.28A11.81,11.81,0,0,0,79.64,86.34Zm1.26-3.28c0-.1.1-.2.14-.3l-.05,0Zm-.85,3.56a11.83,11.83,0,0,0,2.64-2.33A11.91,11.91,0,0,0,80.05,86.62Zm2.64-2.33.24-.18,0,0Zm-2.42,2.76a11.8,11.8,0,0,0,3.42-.83A12.24,12.24,0,0,0,80.27,87.05Zm3.42-.83.27,0s0,0,0-.05Zm-3.42,1.32a11.73,11.73,0,0,0,3.41.85A12.28,12.28,0,0,0,80.27,87.54Zm3.41.85.23.08s0,0,0,0ZM80,88a12,12,0,0,0,2.63,2.34A11.48,11.48,0,0,0,80,88Zm2.63,2.34.14.15,0,0Zm-3-2.06a11.83,11.83,0,0,0,1.24,3.29A11.68,11.68,0,0,0,79.64,88.26Zm1.24,3.29a1.21,1.21,0,0,0,.05.18h0Zm-1.73-3.24a11.68,11.68,0,0,0-.43,3.49A11.72,11.72,0,0,0,79.15,88.31Zm-.43,3.49a1.16,1.16,0,0,0,0,.18h0C78.71,91.93,78.72,91.86,78.72,91.8Zm0-3.66a11.77,11.77,0,0,0-2,2.89A11.59,11.59,0,0,0,78.69,88.14Zm-2,2.89-.13.15,0,0Zm1.68-3.26a12,12,0,0,0-3.12,1.62A11.66,11.66,0,0,0,78.37,87.77ZM75.25,89.4l-.21.08,0,0Zm3-2.11a12.16,12.16,0,0,0-3.51,0A11.33,11.33,0,0,0,78.25,87.29Zm-3.51,0-.26,0v0Zm3.63-.46a11.8,11.8,0,0,0-3.1-1.64A11.9,11.9,0,0,0,78.37,86.82Zm-3.1-1.64L75,85a.08.08,0,0,1,0,0Zm3.43,1.27a12,12,0,0,0-2-2.9A11.58,11.58,0,0,0,78.7,86.45Zm-2-2.9c0-.09-.11-.18-.16-.28l0,0A2.43,2.43,0,0,0,76.71,83.55Z" transform="translate(0.13)"/><path id="SvgjsPath4314" class="cls-19" d="M80,82.47h-.06c0,.11,0,.22,0,.33C79.93,82.69,80,82.58,80,82.47Zm-.08.32a11.74,11.74,0,0,0-.5,3.48A11.53,11.53,0,0,0,79.9,82.79Zm-.5,3.48c-.07.12-.14.2-.23.21a.36.36,0,0,1-.26-.16.34.34,0,0,1-.1.29.38.38,0,0,1-.31,0,.34.34,0,0,1,0,.3c0,.08-.14.11-.28.13.11.08.18.16.18.25s-.07.16-.19.24c.14,0,.24.06.27.14a.32.32,0,0,1,0,.3.31.31,0,0,1,.3,0,.34.34,0,0,1,.1.29.34.34,0,0,1,.27-.15c.08,0,.15.09.21.22,0-.14.09-.23.18-.25a.32.32,0,0,1,.29.08.33.33,0,0,1,0-.3.39.39,0,0,1,.3-.06A.33.33,0,0,1,80,87.5c0-.08.11-.14.24-.19-.13,0-.21-.11-.23-.2a.34.34,0,0,1,.12-.28c-.13,0-.24,0-.29-.07s-.06-.17,0-.3c-.12.07-.22.11-.3.07S79.43,86.41,79.4,86.27Zm.45.19a12,12,0,0,0,2.07-2.85A11.78,11.78,0,0,0,79.85,86.46Zm2.07-2.85.21-.25,0,0Zm-1.75,3.22a11.46,11.46,0,0,0,3.15-1.56A11.89,11.89,0,0,0,80.17,86.83Zm3.15-1.56.28-.11s0,0,0,0Zm-3,2a11.45,11.45,0,0,0,3.51.08A12,12,0,0,0,80.28,87.31Zm3.51.08.28,0v0Zm-3.64.4a11.91,11.91,0,0,0,3.07,1.7A11.51,11.51,0,0,0,80.15,87.79Zm3.07,1.7.2.13,0,0Zm-3.41-1.34a11.81,11.81,0,0,0,1.94,2.93A11.66,11.66,0,0,0,79.81,88.15Zm1.94,2.93.1.19,0,0Zm-2.4-2.77a11.66,11.66,0,0,0,.35,3.5A11.76,11.76,0,0,0,79.35,88.31Zm.35,3.5V92h0Zm-.83-3.57a11.77,11.77,0,0,0-1.32,3.26A11.82,11.82,0,0,0,78.87,88.24ZM77.55,91.5l-.09.16h0ZM78.47,88a11.8,11.8,0,0,0-2.68,2.27A12.07,12.07,0,0,0,78.47,88Zm-2.68,2.27-.17.12,0,0A1.85,1.85,0,0,1,75.79,90.22Zm2.46-2.71a11.8,11.8,0,0,0-3.43.76A11.55,11.55,0,0,0,78.25,87.51Zm-3.43.76-.23,0a.08.08,0,0,1,0,0ZM78.26,87a11.79,11.79,0,0,0-3.39-.92A11.55,11.55,0,0,0,78.26,87Zm-3.39-.92L74.63,86s0,0,0,0Zm3.63.49a11.89,11.89,0,0,0-2.57-2.39A11.48,11.48,0,0,0,78.5,86.59ZM75.93,84.2,75.72,84l0,0Zm3,2.12A11.49,11.49,0,0,0,77.74,83,11.86,11.86,0,0,0,78.91,86.32ZM77.74,83c0-.1,0-.21-.08-.31l0,0C77.65,82.81,77.7,82.91,77.74,83Z" transform="translate(0.13)"/><path id="SvgjsPath4318" class="cls-17" d="M81.15,87.2a1.88,1.88,0,1,1-1.88-1.88A1.88,1.88,0,0,1,81.15,87.2Z" transform="translate(0.13)"/><path id="SvgjsPath4319" class="cls-20" d="M81.15,87.2a1.88,1.88,0,1,1-1.88-1.88A1.88,1.88,0,0,1,81.15,87.2Z" transform="translate(0.13)"/><path id="SvgjsPath4320" class="cls-21" d="M76.64,89.4a.79.79,0,0,1,1.09.22.78.78,0,0,1-1.3.87.8.8,0,0,1,.21-1.09Z" transform="translate(0.13)"/><path id="SvgjsPath4324" class="cls-22" d="M80.76,86.94c-.2.3-.78.26-1.29-.08s-.76-.86-.56-1.16h0c.2-.3.78-.26,1.29.08s.76.86.56,1.16Z" transform="translate(0.13)"/><path id="SvgjsPath4328" class="cls-23" d="M83,86.14c-.45.7-1.63.74-2.62.09s-1.42-1.73-1-2.43,1.63-.74,2.62-.09,1.43,1.73,1,2.43Z" transform="translate(0.13)"/></g></g></g><g id="svga-group-eyesfront-left"><path id="SvgjsPath4266" class="cls-3" d="M64,86.87c2.58,9,6,18.65,14.15,18.93S95.82,100,95.94,88c.14-13.41-8.38-18.7-16.55-19S60.12,73.37,64,86.87Zm4.61-.4a6.5,6.5,0,0,1-.25-2A13.68,13.68,0,0,1,73,83a29.32,29.32,0,0,1,8.26-.26c3.67.54,6.34,2.79,8.62,6.35h0a.14.14,0,0,1,0,.06c.2.81-.65,1.46-1.72,2-3.82.49-7.49,1.19-11.36.7C69.09,90.78,69,87.37,68.57,86.47Z" transform="translate(0.13)"/><path id="SvgjsPath4267" class="cls-24" d="M79.25,96.14c7.41,1.12,14.28-2.41,15.35-7.89s-4.06-10.83-11.46-12-14.28,2.41-15.35,7.89S71.84,95,79.25,96.14ZM68.32,84.5A15.54,15.54,0,0,1,73,83a29.3,29.3,0,0,1,8.26-.26c3.67.54,6.34,2.79,8.61,6.35h0s0,0,0,.06c.2.81-.65,1.46-1.72,2-3.82.49-7.49,1.19-11.36.7-7.75-1-7.88-4.41-8.26-5.31A6.5,6.5,0,0,1,68.32,84.5Z" transform="translate(0.13)"/><path id="SvgjsPath4272" class="cls-25" d="M68.57,86.47a6.5,6.5,0,0,1-.25-2A14.83,14.83,0,0,1,73,83a29.32,29.32,0,0,1,8.26-.26c3.67.54,6.34,2.79,8.62,6.35h0a.14.14,0,0,1,0,.06c.2.81-.65,1.46-1.72,2-3.82.49-7.49,1.19-11.36.7C69.09,90.78,69,87.37,68.57,86.47Z" transform="translate(0.13)"/><path id="SvgjsPath4276" class="cls-13" d="M80.93,80.6a20.57,20.57,0,0,1,7.59,3.16c.51.32,1.09.69,2,1.16a7.41,7.41,0,0,1-1.84-.81A12.14,12.14,0,0,1,90.27,86c-2-2.53-5.84-4.43-9.09-5.08a25,25,0,0,0-13,1.63C72,80.36,77.66,80.07,80.93,80.6Z" transform="translate(0.13)"/><path id="SvgjsPath4277" d="M89.88,89c-2.28-3.47-5-5.66-8.63-6.19-3.86-.57-9-.18-12,1.47-.24.14-1.28,1-1.12.09.7-.93,3.46-2,4.8-2.34C87.89,78.42,90.74,90.29,89.88,89ZM68.39,86.28c-.58,1.65.69,5.32,8.11,6A37.81,37.81,0,0,0,88.21,91c-3.82.47-7.5,1.16-11.37.67C68.05,90.55,69,86.42,68.39,86.28Z" transform="translate(0.13)"/></g></g><g id="svga-group-eyes-right"><g id="svga-group-eyesback-right"><path id="SvgjsPath4249" class="cls-26" d="M118.17,82.71c-3.67.54-6.35,2.79-8.62,6.35h0a.14.14,0,0,1,0,.06c-.2.81.65,1.46,1.73,2,3.81.49,7.48,1.19,11.35.7,7.75-1,7.89-4.41,8.26-5.31a6.5,6.5,0,0,0,.25-2,12.9,12.9,0,0,0-4.68-1.61A29.62,29.62,0,0,0,118.17,82.71Z" transform="translate(0.13)"/></g><g id="svga-group-eyesiriswrapper-right"><g id="svga-group-eyesiriscontrol-right"><g id="svga-group-eyesiris-right"><path id="SvgjsPath4332" class="cls-17" d="M125.27,87.2a4.8,4.8,0,0,1-9.6,0h0a4.8,4.8,0,0,1,9.6,0Z" transform="translate(0.13)"/><path id="SvgjsPath4333" class="cls-27" d="M119.93,82.46h-.05c0,.11,0,.22.07.33C119.94,82.68,119.94,82.57,119.93,82.46Zm0,.33a11.77,11.77,0,0,0,.42,3.49A11.61,11.61,0,0,0,119.94,82.79Zm.42,3.49c0,.13-.09.22-.17.25a.32.32,0,0,1-.29-.08.33.33,0,0,1,0,.3c-.06.07-.16.08-.3.07a.34.34,0,0,1,.12.28c0,.08-.11.14-.23.19.12,0,.21.11.23.2a.34.34,0,0,1-.12.28.31.31,0,0,1,.3.07.35.35,0,0,1,0,.3.32.32,0,0,1,.29-.08c.08,0,.13.12.16.25.07-.12.14-.19.23-.2a.31.31,0,0,1,.26.15.34.34,0,0,1,.1-.29.32.32,0,0,1,.3,0,.34.34,0,0,1,0-.3c0-.08.14-.12.28-.14-.12-.07-.19-.16-.18-.24s.06-.17.18-.25c-.14,0-.24,0-.28-.13a.35.35,0,0,1,0-.3.34.34,0,0,1-.31,0c-.07,0-.09-.15-.1-.29a.31.31,0,0,1-.26.15C120.5,86.48,120.42,86.4,120.36,86.28Zm.48.06a11.57,11.57,0,0,0,1.26-3.28A12.15,12.15,0,0,0,120.84,86.34Zm1.26-3.28c.05-.1.1-.2.14-.3l0,0Zm-.85,3.56a11.61,11.61,0,0,0,2.64-2.33A11.91,11.91,0,0,0,121.25,86.62Zm2.64-2.33.24-.18,0,0Zm-2.41,2.76a11.69,11.69,0,0,0,3.41-.83A12,12,0,0,0,121.48,87.05Zm3.41-.83.27,0v-.05Zm-3.42,1.32a11.73,11.73,0,0,0,3.41.85A12.2,12.2,0,0,0,121.47,87.54Zm3.41.85.23.08v0ZM121.24,88a12,12,0,0,0,2.63,2.34A11.48,11.48,0,0,0,121.24,88Zm2.63,2.34.14.15,0,0Zm-3-2.06a11.83,11.83,0,0,0,1.24,3.29A11.68,11.68,0,0,0,120.84,88.26Zm1.24,3.29c0,.06,0,.12,0,.18h0Zm-1.73-3.24a11.68,11.68,0,0,0-.43,3.49A11.72,11.72,0,0,0,120.35,88.31Zm-.43,3.49c0,.06,0,.12,0,.18h0C119.91,91.93,119.92,91.86,119.92,91.8Zm0-3.66a11.46,11.46,0,0,0-2,2.89A12,12,0,0,0,119.9,88.14Zm-2,2.89-.13.15,0,0Zm1.68-3.26a12,12,0,0,0-3.12,1.62A11.66,11.66,0,0,0,119.57,87.77Zm-3.12,1.63-.21.08s0,0,0,0Zm3-2.11a12.24,12.24,0,0,0-3.52,0A11.4,11.4,0,0,0,119.46,87.29Zm-3.52,0-.26,0v0Zm3.63-.46a11.8,11.8,0,0,0-3.1-1.64A11.9,11.9,0,0,0,119.57,86.82Zm-3.1-1.64-.26-.16a.08.08,0,0,1,0,0Zm3.43,1.27a12,12,0,0,0-2-2.9A11.86,11.86,0,0,0,119.9,86.45Zm-2-2.9c0-.09-.11-.18-.16-.28l0,0Z" transform="translate(0.13)"/><path id="SvgjsPath4337" class="cls-28" d="M121.18,82.47h-.06v.33C121.13,82.69,121.16,82.58,121.18,82.47Zm-.08.32a12.09,12.09,0,0,0-.5,3.48A11.53,11.53,0,0,0,121.1,82.79Zm-.5,3.48c-.07.12-.14.2-.23.21a.36.36,0,0,1-.26-.16.34.34,0,0,1-.1.29.38.38,0,0,1-.31,0,.34.34,0,0,1,0,.3c0,.08-.14.11-.28.13.12.08.18.16.18.25s-.07.16-.19.24c.14,0,.24.06.27.14a.32.32,0,0,1,0,.3.33.33,0,0,1,.31,0c.07,0,.09.15.09.29a.34.34,0,0,1,.27-.15c.08,0,.15.09.21.22,0-.14.09-.23.18-.25a.32.32,0,0,1,.29.08.36.36,0,0,1,0-.3.39.39,0,0,1,.3-.06.36.36,0,0,1-.11-.28c0-.08.11-.14.24-.19-.12,0-.21-.11-.23-.2a.33.33,0,0,1,.13-.28c-.14,0-.25,0-.3-.07s-.06-.17,0-.3c-.12.07-.22.11-.3.07S120.63,86.41,120.6,86.27Zm.46.19a12,12,0,0,0,2.06-2.85A11.39,11.39,0,0,0,121.06,86.46Zm2.06-2.85.21-.25,0,0Zm-1.75,3.22a11.32,11.32,0,0,0,3.15-1.56A11.89,11.89,0,0,0,121.37,86.83Zm3.15-1.56.29-.11,0,0Zm-3,2a11.5,11.5,0,0,0,3.52.08A12.11,12.11,0,0,0,121.48,87.31Zm3.52.08.27,0v0Zm-3.65.4a11.84,11.84,0,0,0,3.08,1.7A11.67,11.67,0,0,0,121.35,87.79Zm3.07,1.7.2.13,0,0ZM121,88.15A11.69,11.69,0,0,0,123,91.08,12,12,0,0,0,121,88.15ZM123,91.08l.1.19,0,0Zm-2.4-2.77a12,12,0,0,0,.35,3.5A11.76,11.76,0,0,0,120.55,88.31Zm.35,3.5V92h0Zm-.83-3.57a11.77,11.77,0,0,0-1.32,3.26A11.82,11.82,0,0,0,120.07,88.24Zm-1.32,3.26-.09.16h0Zm.92-3.55A11.8,11.8,0,0,0,117,90.22,12.07,12.07,0,0,0,119.67,88ZM117,90.22l-.17.12,0,0Zm2.46-2.71a11.8,11.8,0,0,0-3.43.76A11.47,11.47,0,0,0,119.45,87.51Zm-3.43.76-.22,0s0,0,0,0ZM119.46,87a11.79,11.79,0,0,0-3.39-.92A11.55,11.55,0,0,0,119.46,87Zm-3.39-.92-.24-.09,0,0Zm3.63.49a11.89,11.89,0,0,0-2.57-2.39A11.48,11.48,0,0,0,119.7,86.59Zm-2.57-2.39-.2-.22,0,0Zm3,2.12A11.49,11.49,0,0,0,118.94,83,11.86,11.86,0,0,0,120.11,86.32ZM118.94,83c0-.1,0-.21-.08-.31l0,0C118.85,82.81,118.9,82.91,118.94,83Z" transform="translate(0.13)"/><path id="SvgjsPath4341" class="cls-17" d="M122.36,87.2a1.89,1.89,0,1,1-1.89-1.88A1.89,1.89,0,0,1,122.36,87.2Z" transform="translate(0.13)"/><path id="SvgjsPath4342" class="cls-20" d="M122.36,87.2a1.89,1.89,0,1,1-1.89-1.88A1.89,1.89,0,0,1,122.36,87.2Z" transform="translate(0.13)"/><path id="SvgjsPath4343" class="cls-29" d="M117.85,89.4a.78.78,0,0,1,1.08.22.77.77,0,0,1-.21,1.08.78.78,0,0,1-1.09-.21.79.79,0,0,1,.22-1.09Z" transform="translate(0.13)"/><path id="SvgjsPath4347" class="cls-30" d="M122,86.94c-.2.3-.78.26-1.28-.08s-.76-.86-.56-1.16h0c.2-.3.77-.26,1.28.08s.76.86.56,1.16Z" transform="translate(0.13)"/><path id="SvgjsPath4351" class="cls-31" d="M124.25,86.14c-.46.7-1.63.74-2.63.09s-1.42-1.73-1-2.43,1.63-.74,2.62-.09,1.43,1.73,1,2.43Z" transform="translate(0.13)"/></g></g></g><g id="svga-group-eyesfront-right"><path id="SvgjsPath4287" class="cls-3" d="M120,69c-8.17.29-16.69,5.58-16.55,19,.12,12,9.66,18.08,17.83,17.79S134.26,92,135.46,86.87C138.69,73.21,128.2,68.74,120,69Zm2.56,22.76c-3.87.49-7.54-.21-11.35-.7-1.08-.49-1.93-1.14-1.73-2a.14.14,0,0,0,0-.06h0c2.27-3.56,5-5.81,8.62-6.35a29.25,29.25,0,0,1,8.25.26,13.68,13.68,0,0,1,4.68,1.53,6.5,6.5,0,0,1-.25,2C130.48,87.37,130.34,90.78,122.59,91.78Z" transform="translate(0.13)"/><path id="SvgjsPath4288" class="cls-32" d="M131.63,84.19c-1.07-5.48-7.94-9-15.34-7.89s-12.54,6.47-11.47,12,8,9,15.35,7.89S132.71,89.67,131.63,84.19Zm-.78,2.28c-.37.9-.51,4.31-8.26,5.31-3.87.49-7.54-.21-11.35-.7-1.07-.49-1.93-1.14-1.73-2a.14.14,0,0,0,0-.06h0c2.27-3.56,5-5.81,8.62-6.35a29.25,29.25,0,0,1,8.25.26,15.54,15.54,0,0,1,4.68,1.53A6.5,6.5,0,0,1,130.85,86.47Z" transform="translate(0.13)"/><path id="SvgjsPath4293" class="cls-33" d="M130.85,86.47a6.5,6.5,0,0,0,.25-2A14.75,14.75,0,0,0,126.42,83a29.25,29.25,0,0,0-8.25-.26c-3.67.54-6.35,2.79-8.62,6.35h0a.14.14,0,0,1,0,.06c-.2.81.66,1.46,1.73,2,3.81.49,7.48,1.19,11.35.7C130.34,90.78,130.48,87.37,130.85,86.47Z" transform="translate(0.13)"/><path id="SvgjsPath4297" class="cls-13" d="M118.49,80.6a20.53,20.53,0,0,0-7.58,3.16c-.51.32-1.1.69-2,1.16a7.64,7.64,0,0,0,1.85-.81A12.21,12.21,0,0,0,109.15,86c2-2.53,5.84-4.43,9.09-5.08a25,25,0,0,1,13,1.63C127.38,80.36,121.76,80.07,118.49,80.6Z" transform="translate(0.13)"/><path id="SvgjsPath4298" d="M126.52,82.05c1.34.33,4.1,1.41,4.8,2.35.16.9-.88,0-1.12-.1-3-1.65-8.16-2-12-1.47-3.67.53-6.35,2.72-8.62,6.19C108.69,90.29,111.53,78.42,126.52,82.05Zm-3.93,9.61c-3.88.49-7.55-.2-11.38-.67a37.87,37.87,0,0,0,11.71,1.29c7.43-.68,8.69-4.35,8.12-6C130.38,86.42,131.37,90.55,122.59,91.66Z" transform="translate(0.13)"/></g></g><g id="svga-group-facehighlight-single"><path id="SvgjsPath2885" class="cls-34" d="M132.67,111.18A32.8,32.8,0,1,1,99.82,78.4,32.77,32.77,0,0,1,132.67,111.18Z" transform="translate(0.13)"/><path id="SvgjsPath2889" class="cls-35" d="M129.87,63.2a30,30,0,1,1-30-30A30,30,0,0,1,129.87,63.2Z" transform="translate(0.13)"/></g><g id="svga-group-eyebrows-left"><path id="SvgjsPath4101" class="cls-36" d="M61.86,79.1c6-7.51,16.27-6.26,24.7-5A58.39,58.39,0,0,1,93,75.12c1.51.38,2.69,2.09,1.48,3.48-.57.66-1.8.54-2.56.52C81.84,78.92,70.42,73.11,61.86,79.1Z" transform="translate(0.13)"/></g><g id="svga-group-eyebrows-right"><path id="SvgjsPath4102" class="cls-36" d="M137.93,78.79a14.22,14.22,0,0,0-5.63-2.31c-7.6-1.23-22.07,3.83-25.87,2.76a2,2,0,0,1-.83-3.56c.62-.35.79-.34,6.33-1.29C121.33,72.77,131.86,71.49,137.93,78.79Z" transform="translate(0.13)"/></g><g id="svga-group-nose-single"><path id="SvgjsPath3111" class="cls-5" d="M92.76,112.4c-.7,1.65,4.75,3.44,6.82,3.55,2.24.11,8.52-2.32,7.45-4s-5.31-.23-7.12-.23S93.7,110.2,92.76,112.4Z" transform="translate(0.13)"/><path id="SvgjsPath3112" class="cls-13" d="M101.36,113.65c-.19-.61,1.5-1.27,2.12-1.36.88-.12,2.69.65,2.53,1.28s-1.72-.43-2.29-.35S101.53,114.22,101.36,113.65Zm-5.51-.2c.77,0,1.92.5,2.13.06s-1.71-1.17-2.28-1.1-2.19,1.06-2,1.47S94.83,113.45,95.85,113.45Z" transform="translate(0.13)"/><path id="SvgjsPath3113" class="cls-37" d="M99.94,109.6a1.74,1.74,0,0,0,1.44-1.78c.16-4.81-.77-19.07-1.44-19s-1.81,14.11-1.56,19A1.79,1.79,0,0,0,99.94,109.6Z" transform="translate(0.13)"/></g><g id="svga-group-beardwrap"><g id="svga-group-beard-single"><path id="SvgjsPath4223" class="cls-2" d="M80.82,142.6c7.8,0,9.24-.12,11.38-1.48,2.49-1.53,4.26-6,1.82-11.5l.26.06c3.1.63,5,1,10.86-.16-1.6,3.32-1.68,6.71-.22,9.32,2.57,4.63,6.84,3.44,14,3.81-7.56,7.94-13.56,11.48-19.44,11.48C92.38,154.12,84.86,148.22,80.82,142.6Z" transform="translate(0.13)"/><path id="SvgjsPath4224" d="M94.34,130.65a11.14,11.14,0,0,0-.46-1.13c3.36.68,5.15,1.15,11.41-.11-.17.35-.32.69-.46,1C101.26,132.7,97.48,133.36,94.34,130.65Zm15.75,11.6a6.3,6.3,0,0,1-3.62-1.6c1.35,2.92,5.36,3.35,9.39,3.35-3.2,0-2.4,2.4-4.8,0,.66,1.31-.52,3.73-.8,4a6.34,6.34,0,0,0-.8-2.4c-1.6.8,0,2.4-1.6,3.2.8-.8-.8-1.6-.8-2.4-.8,1.6-1.16,2.42-2,4,0-1.6-.48-1.79-1.28-2.59,0,1.6-.75,1.77-1.55,3.37,0-.8-1.6-1.6-.8-3.2-1.6.8-1.6,2.4-1.6,4-.8-.8-.8-1.6-.8-3.2-2.4,0-1.6,3.2-2.4,3.2-.8-.8,0-3.2-1.6-4.8.8,1.6-2.4,2.4-1.6,4-1.6-1.6,0-3.2-1.6-4.8a7,7,0,0,0-1.44,2.42,1.46,1.46,0,0,1-.16.78,2.63,2.63,0,0,1,.16-.78c-.05-1.34-1.62-2.68-1-4a6.06,6.06,0,0,0-1.6,3.2,5.59,5.59,0,0,0-1.6-3.2l-.8,1.6s.58-2.16-.5-2.37l-.3,0a1.26,1.26,0,0,1,.3,0,8.32,8.32,0,0,0,8.7-4.47,7.14,7.14,0,0,1-1.52,1.49c-2.14,1.37-3.53,1.47-11.49,1.47a31.78,31.78,0,0,0,3,3.58c13.5,13.22,23.54,9,35.41-3.52C116.34,142.42,112.24,142.56,110.09,142.25Z" transform="translate(0.13)"/><path id="SvgjsPath4225" d="M110.09,142.25c-4.78-.45-8.1-6.19-4.8-12.84-6.26,1.27-8.05.79-11.41.11a10.74,10.74,0,0,1,.28,9.34,7.71,7.71,0,0,1-2,2.19c-2.14,1.37-3.54,1.47-11.49,1.47a33.06,33.06,0,0,0,3,3.58c13.51,13.22,23.55,9,35.42-3.52C116.34,142.42,112.24,142.56,110.09,142.25Zm-5.87,10c-8.33,2.55-16.8-2.66-22.93-9.38,4.15.18,14.25,1.94,14.34-7.82A12.47,12.47,0,0,0,94.36,130c2.75.76,5.34,1.15,10.46-.15-3.36,6.61-.08,12.74,5.49,13.17,1.51.26,6-.11,8-.17C114.87,146,108.71,150.7,104.22,152.28Z" transform="translate(0.13)"/></g></g><g id="svga-group-mustache-single"><path id="SvgjsPath4226" class="cls-36" d="M99.87,34.5Z" transform="translate(0.13)"/></g><g id="svga-group-hair-front"><path id="SvgjsPath4357" class="cls-2" d="M55.85,95.92c-1.94-7-3-13.23-4.43-19.67l.06,0c-.55-1.35-2.53-12-2.54-12.16-2-14.22,4-15,3.87-21,2.53,1.27,5,.64,7.21-1.09-2.33-1.2-1.59-1.39-4.69-3.28,2.18-.37,3.46.14,5.31.37-1.58-1.59-4.7-4.83-6.72-4.4l-.13-.28c2.93-2.29,6.84,2.47,10.36,1.18C64.26,22.52,83.4,19.8,88.06,17.85c6.21-2.36,12.69-7.55,17.25-8A16.13,16.13,0,0,0,101,19.72a113.33,113.33,0,0,0,9.72-9.81c0,5.09-1.41,5.73-3.24,8.72,5-3.26,11.16-12.4,20.71-13.79l.1.29c-3.44,2-6.1,5.45-7.92,10.17,1.81-2.18,4.36-4.55,7.19-5l.11.29c-1.78,1.06-5.25,4.59-6,10.51a32.77,32.77,0,0,1,12.91-8.38l.15.27c-3.52,2.86-4.93,7.87-5.72,12.12a14.39,14.39,0,0,1,7-6A14.82,14.82,0,0,0,134.27,22c1.92,4.89,8.25,5.08,9.33,13.64a31.8,31.8,0,0,1,3.32-2.47l.23.22a30.66,30.66,0,0,0-2.67,6.92c2.22-1.7,5.66-3,8.07-3.82l.17.26c-2,2.07-4.52,5.24-4.93,8.67a14.8,14.8,0,0,0,1.88-1.18c0,2.47.09,2.15.1,3.29a20.15,20.15,0,0,0,1.83-1.75c-.15,25.89-1.48,20.73-5.06,38.78-.63,3.17-1.74,8.7-2.45,11.36l-4.84.83c1.5-17.91-.07-14,1-25.28,1.61-16.62-11.85-30.25-29.62-25.79-3.6.9-18,.9-21.55,0-19.64-4.93-26.72,6.54-28.82,26.62-1,9.86-1.29,6.53.21,24.45Z" transform="translate(0.13)"/><path id="SvgjsPath4358" class="cls-38" d="M149.77,47.49c0-1.14-.1-.82-.1-3.29a14.8,14.8,0,0,1-1.88,1.18c.41-3.43,2.89-6.6,4.93-8.67l-.17-.26c-2.41.87-5.85,2.12-8.07,3.82a30.66,30.66,0,0,1,2.67-6.92l-.23-.22a30.77,30.77,0,0,0-3.32,2.47c-1.08-8.55-7.41-8.74-9.33-13.64A15.13,15.13,0,0,1,136,19.1a14.39,14.39,0,0,0-7,6c.79-4.25,2.2-9.26,5.72-12.11l-.15-.28a32.77,32.77,0,0,0-12.91,8.38c.79-5.91,4.26-9.45,6-10.51l-.11-.29c-2.83.42-5.38,2.79-7.19,5,1.82-4.72,4.48-8.14,7.92-10.17l-.11-.29c-9.54,1.4-15.73,10.53-20.7,13.79,1.83-3,3.24-3.63,3.24-8.72A111.87,111.87,0,0,1,101,19.72a16.13,16.13,0,0,1,4.28-9.89c-4.56.47-11,5.66-17.25,8-4.66,1.95-23.8,4.67-23.91,17.77-3.52,1.28-7.43-3.47-10.36-1.19l.13.28c2-.43,5.14,2.81,6.72,4.4-1.85-.23-3.13-.74-5.31-.36,3.1,1.88,2.36,2.07,4.69,3.27-2.22,1.73-4.68,2.36-7.21,1.09.12,5.94-5.9,6.75-3.87,21,0,.12,2,10.81,2.54,12.17h-.06c1.45,6.44,2.49,12.62,4.43,19.67h0c-.53-13.15-8.82-31.85-3.95-43.83C52.55,50.53,55,46.4,55,46.4s7.7-1,8.06-4a11.51,11.51,0,0,1-2.4-1.6c1.6.8,1.6-1.6,3.2-.8,0-1.6-2.4-.8-2.4-2.4,1.6,0,3.2,0,4.8,1.6-.8-4,0-8,3.2-10.4,8-6.4,18.4-5.6,26.4-12a61.75,61.75,0,0,0-1.6,12c4.8-2.4,6.4-7.2,10.4-10.4.8,3.2-.8,7.2-.8,10.4,2.4-5.6,5.6-11.2,12.8-12.8-3.2,3.2-3.2,8-3.2,12,0-3.2,3.2-4.8,4-7.2v9.6c1.6-4.8,4.8-7.2,8.8-8.8-3.2,3.2-2.4,6.4-3.2,10.4,2.4-2.4,5.6-3.2,8-5.6,2.4,4.8.8,8.8.8,13.6.8-4,4.8-6.4,7.2-9.6a30.3,30.3,0,0,1,0,12c.8-2.4,2.4-4,3.2-6.4a33.44,33.44,0,0,1-1.58,10.51c1-1.16,2.64-1.68,3.18-3.31v9.62c.47-1,1.83-1.28,2.4-2.42-.68,2.73-.2,4.88,0,7.44.29-1.56,1.8-2.53,2.35-4l.09-1.87a3,3,0,0,1-.09,1.87c-.73,14.22-2.08,28.41-5,42.1l.52-.09c.71-2.66,1.82-8.19,2.45-11.36,3.58-18,4.91-12.89,5.05-38.78A18.62,18.62,0,0,1,149.77,47.49Z" transform="translate(0.13)"/><path id="SvgjsPath4359" d="M154.1,35.76a21.33,21.33,0,0,0-8.84,3.4c.3-.81,1.75-5.34,3.31-7.24a21.39,21.39,0,0,0-4.58,2.8,8.43,8.43,0,0,0-.47-2.27,8.9,8.9,0,0,0-1-2.09c-4.13-5.84-4.39-3.4-7.78-7.87a13.44,13.44,0,0,1,2.63-4,10.79,10.79,0,0,0-6.75,3.61l-.08.09c1.24-4.9,3.67-9.15,8.45-10.74-5.91-.22-13.22,4.15-16.9,8.51,1.59-5.1,3.72-7.54,6.88-9.8a8.08,8.08,0,0,0-6.27,2.06,20.9,20.9,0,0,1,7.48-7.62,12,12,0,0,0-1.2,0,18.75,18.75,0,0,0-5.73,1c-6.66,2.6-11.51,8.66-13.59,10.63A9.29,9.29,0,0,0,111,9.42c-.53.45-9.29,8.84-9.4,9,.62-3.44,1.79-5.55,4-8.63-4-.74-13.86,5.77-20,7.51C79.14,19,63.17,22.63,63.9,35.41c-3.43.66-8.47-4.86-11.1-.23,2.11-1.26,4.92,1.77,6.87,3.5-.8-.13-3.47-.76-4.77.1,1.52.59,2.84,2.35,4.71,3.28l.08,0C58,43,56,43.72,54.09,43.21l-.46-.14-.7-.3h0l-.32-.17c.55,4.49-6.26,8.12-5.51,17.62.31,5.84,4,23.6,8.55,35.65L56,96c-1.91-6.9-3-13.39-4.46-19.76-.12,0-2.45-12-2.48-12.17-2-14.1,4-15.12,3.88-20.67,2.5,1.25,5.23.35,7.35-1.38-2.5-1.24-2-1.59-4.55-3.16,1.73-.3,3.85.38,5.3.48-1.88-1.88-5-5.21-7.18-4.75,2.85-2.23,6.79,2.61,10.42,1.16,0-13.1,19-15.7,23.82-17.72,5.81-2.22,13-7.59,16.75-8a16.23,16.23,0,0,0-4,10.06,115.41,115.41,0,0,0,9.73-9.78c0,4.81-1.8,5.67-3.54,8.78,5.13-3,11.34-12.66,21.19-14.1-4.12,2.42-6.75,6.66-8.33,11.17,1.88-2.45,4.64-5.22,7.7-5.69-1.6,1-5.48,4.63-6.17,11.15a32.34,32.34,0,0,1,13.17-8.73c-3.68,3-5.09,8.3-5.91,13a16.24,16.24,0,0,1,4.78-5.24h0a10.6,10.6,0,0,1,2-1.11A11.4,11.4,0,0,0,134.1,22c1.94,5.1,8.41,5.13,9.38,14A29.65,29.65,0,0,1,147,33.26c-1.23,1.92-2.22,5.41-2.84,7.46,2.33-2,6.63-3.47,8.44-4.12-2.4,2.44-4.73,5.67-5,9.08.49-.33,1.11-.59,1.91-1.16,0,2.18.11,1.88.11,3.32.42-.38,1.37-1.2,1.81-1.68-.15,25.37-1.5,20.45-5.05,38.33-1.32,6.7-2,9.8-2.46,11.42l.34-.07c2.87-8.6,8.59-28,8.33-38.09,0-3.76-.85-11.6-.89-12.4,0,0-1.66,1.57-1.68,1.57,0-.4-.17-2.14-.17-3.09a18.26,18.26,0,0,1-1.67,1.09C149.28,41.59,151,39.52,154.1,35.76Z" transform="translate(0.13)"/></g><g id="svga-group-glasses-single"><path id="SvgjsPath4237" class="cls-39" d="M138.86,85.3c-.05,3.51-1.88,7.21-4.24,10.17s-8.24,3.9-12.65,3.9a19.61,19.61,0,0,1-8.82-1.71,19.32,19.32,0,0,1-8.74-12.11C112.54,81.4,129.32,81.4,138.86,85.3Zm-78-.48c-.11,3.65,1.78,7.56,4.24,10.65,2.29,2.88,8.25,3.9,12.65,3.9a19.61,19.61,0,0,0,8.82-1.71A19.45,19.45,0,0,0,95.24,86C86.59,81.68,70,81.22,60.88,84.82Z" transform="translate(0.13)"/><path id="SvgjsPath4238" class="cls-40" d="M138.86,85.3c-9.54-3.89-26.32-3.9-34.44.24a11.19,11.19,0,0,1-.19-2.21c.18-5.61,9.62-7.6,17.65-7.6,5.66,0,12.35,1,14.51,3.22A8.59,8.59,0,0,1,138.86,85.3Zm-61-9.57c-5.66,0-12.35,1-14.51,3.22a8.56,8.56,0,0,0-2.47,5.87C70,81.22,86.59,81.68,95.23,86a10,10,0,0,0,.27-2.65C95.33,77.72,85.89,75.73,77.86,75.73Z" transform="translate(0.13)"/><path id="SvgjsPath4239" class="cls-41" d="M143.46,77.74c-.48-1.63-22.41-4.94-33.8-1.62-2.75.8-4.65,1.52-5.79,2.53v0a2,2,0,0,1-2.11.58,6.1,6.1,0,0,0-3.78,0,2,2,0,0,1-2.11-.58v0c-1.13-1-3-1.72-5.79-2.53-11.39-3.32-33.31,0-33.79,1.62a37.53,37.53,0,0,0-.42,5.36c0,1.25.93,1.15,2.3,1.69a5.17,5.17,0,0,1,1.73,2.48,19.08,19.08,0,0,0,4.21,8.78c3.86,4.84,17.37,5.61,23.13,2.47a20.33,20.33,0,0,0,9.21-12.37c.21-1,.41-1.8.57-2.48v0c.29-.83,1.58-1.24,2.86-1.26s2.57.43,2.86,1.26v0c.15.68.36,1.46.57,2.48a20.33,20.33,0,0,0,9.21,12.37c5.76,3.14,19.27,2.37,23.13-2.47a19.18,19.18,0,0,0,4.21-8.78,5.06,5.06,0,0,1,1.73-2.48c1.37-.54,2.29-.44,2.3-1.69A42.15,42.15,0,0,0,143.46,77.74ZM86.37,97.36c-5.11,2.79-17.62,2.07-20.92-2.08-3.76-4.74-6.26-11.5-1.8-16.11,4.31-4.43,31.16-5,31.45,4.16C95.28,88.7,90.64,95,86.37,97.36Zm47.93-2.08c-3.31,4.15-15.82,4.87-20.92,2.08-4.28-2.33-8.92-8.66-8.74-14,.3-9.13,27.14-8.59,31.45-4.16C140.55,83.77,138.06,90.54,134.3,95.28Z" transform="translate(0.13)"/><path id="SvgjsPath4240" class="cls-42" d="M56.17,78.48a5.34,5.34,0,0,1,.12-.74c.48-1.64,22.4-4.95,33.79-1.62,2.75.8,4.66,1.51,5.79,2.52h0S78.27,70.74,56.17,78.48ZM143,84.29a1.13,1.13,0,0,0,.86-1.2,39.2,39.2,0,0,0-.41-5.36c-.48-1.64-22.41-4.94-33.8-1.62-2.62.77-4.47,1.45-5.62,2.39,6-4,30.54-4.85,37.11.69C142.51,80.35,142.94,82.53,143,84.29Z" transform="translate(0.13)"/></g></svg>